<svg width="64" height="64" viewBox="0 0 64 64" fill="none" xmlns="http://www.w3.org/2000/svg">
<path d="M19.3255 12.1436V12.1436C15.2797 12.1436 12 15.4233 12 19.469V44.1745C12 48.2202 15.2797 51.5 19.3255 51.5V51.5" stroke="#31A252" stroke-width="6"/>
<path d="M44.1745 51.3564V51.3564C48.2203 51.3564 51.5 48.0767 51.5 44.031L51.5 19.3255C51.5 15.2798 48.2203 12 44.1745 12V12" stroke="#31A252" stroke-width="6"/>
<path d="M22.3418 46.0418V25.0405C22.3418 22.2447 26.0814 21.3098 27.397 23.7767V23.7767C28.2837 25.4392 30.5621 25.6956 31.7962 24.2717L33.1786 22.6767C35.6861 19.7834 40.44 21.5568 40.44 25.3854V46.0418" stroke="black" stroke-width="6"/>
</svg>
