<svg width="508" height="509" viewBox="0 0 508 509" fill="none" xmlns="http://www.w3.org/2000/svg">
<path d="M96.7273 6.31827H14C8.47715 6.31827 4 10.7954 4 16.3183V494.5C4 500.023 8.47715 504.5 14 504.5H96.7273" stroke="#31A252" stroke-width="8"/>
<path d="M411.273 502.682H494C499.523 502.682 504 498.205 504 492.682L504 14.5001C504 8.97722 499.523 4.50006 494 4.50006H411.273" stroke="#31A252" stroke-width="8"/>
<path d="M134.909 435.409V169.57C134.909 134.181 182.246 122.347 198.9 153.573V153.573C210.124 174.618 238.964 177.863 254.585 159.84L272.084 139.649C303.824 103.025 364 125.473 364 173.937V435.409" stroke="white" stroke-width="8"/>
</svg>
