<svg width="400" height="85" viewBox="0 0 400 85" fill="none" xmlns="http://www.w3.org/2000/svg">
<g clip-path="url(#clip0_2021_18)">
<path d="M28.158 82.75V32.2472C28.158 22.8075 40.3995 19.0988 45.6384 26.9513V26.9513C48.8947 31.8321 55.7429 32.6459 60.0523 28.6641L64.8616 24.2204C74.5532 15.2657 90.2632 22.1395 90.2632 35.3347V82.75" stroke="#31A252" stroke-width="8"/>
<path d="M119.211 45.75V82.75" stroke="#31A252" stroke-width="8"/>
<path d="M120.119 35.75H118.829C117.586 35.75 116.579 34.7426 116.579 33.5C116.579 32.2574 117.586 31.25 118.829 31.25H120.119C121.361 31.25 122.369 32.2574 122.369 33.5C122.369 34.7426 121.361 35.75 120.119 35.75Z" stroke="#31A252" stroke-width="8"/>
<path d="M142.895 78.75H153.313C157.442 78.75 160.79 75.4027 160.79 71.2736V71.2736C160.79 67.9906 158.648 65.0917 155.51 64.1272L151.842 63C146.524 61.3655 142.895 56.453 142.895 50.8896V49.1232C142.895 45.3495 144.329 41.7169 146.908 38.9614V38.9614C149.72 35.9558 153.652 34.25 157.768 34.25H160.79" stroke="#31A252" stroke-width="8"/>
<path d="M163.421 13.25H187.895M212.369 13.25H187.895M187.895 13.25V84.25" stroke="#31A252" stroke-width="8"/>
<path d="M220.79 81.75V34.2853C220.79 30.4455 222.428 26.7881 225.292 24.2315V24.2315C231.83 18.3975 242.108 20.2557 246.189 28.0093L249.592 34.4752C251.189 37.5093 250.332 41.2548 247.574 43.2923V43.2923C244.867 45.2926 243.985 48.9468 245.481 51.962L260.263 81.75" stroke="#31A252" stroke-width="8"/>
<path d="M280.79 82.75V46.75" stroke="#31A252" stroke-width="8"/>
<path d="M272.368 27.8553V27.6447C272.368 23.2846 275.903 19.75 280.263 19.75C284.623 19.75 288.158 23.2846 288.158 27.6447V27.8553C288.158 32.2154 284.623 35.75 280.263 35.75C275.903 35.75 272.368 32.2154 272.368 27.8553Z" stroke="#31A252" stroke-width="8"/>
<path d="M310.263 80.25L327.632 51.5M345 22.75L327.632 51.5M327.632 51.5L310.263 22.75L345 80.25" stroke="#31A252" stroke-width="8"/>
<path d="M364.421 84.25C361.885 84.25 360 83.6642 358.762 82.4919C357.588 81.2613 357 79.7086 357 77.833V76.2508C357 74.3753 357.588 72.8225 358.762 71.5919C360 70.3612 361.885 69.7459 364.421 69.7459C367.018 69.7459 368.905 70.3612 370.079 71.5919C371.254 72.8225 371.842 74.3753 371.842 76.2508V77.833C371.842 79.7086 371.254 81.2613 370.079 82.4919C368.905 83.6642 367.018 84.25 364.421 84.25Z" fill="black"/>
</g>
<defs>
<clipPath id="clip0_2021_18">
<rect width="400" height="83.5" fill="white" transform="translate(0 0.75)"/>
</clipPath>
</defs>
</svg>
